<svg height="512pt" viewBox="0 0 512 512" width="512pt" xmlns="http://www.w3.org/2000/svg"><path d="m331 122v120l-91 270h-120l-90-30-30-90v-270zm0 0" fill="#ff637b"/><path d="m331 122v120l-91 270h-75v-390zm0 0" fill="#e63950"/><path d="m0 512h120l-120-120zm0 0" fill="#e63950"/><path d="m240 75v137h-30v-137c0-24.902344-20.097656-45-45-45s-45 20.097656-45 45v137h-30v-137c0-41.398438 33.601562-75 75-75s75 33.601562 75 75zm0 0" fill="#575f64"/><path d="m240 75v137h-30v-137c0-24.902344-20.097656-45-45-45v-30c41.398438 0 75 33.601562 75 75zm0 0" fill="#32393f"/><path d="m270 182h212v90h-212zm0 0" fill="#84ecf7"/><path d="m346 182h136v90h-136zm0 0" fill="#32ddf9"/><path d="m422 302 60-60 30 60v210h-60zm0 0" fill="#babac0"/><path d="m452 302v210h-212v-210l106-27.300781 10.5-2.699219zm0 0" fill="#84ecf7"/><path d="m452 302v210h-106v-237.300781l10.5-2.699219zm0 0" fill="#32ddf9"/><path d="m482 242-30 60h-212l30-60zm0 0" fill="#ececf1"/><path d="m482 242-30 60h-106v-60zm0 0" fill="#d3d3d8"/><path d="m346 362c-24.902344 0-46 20.097656-46 45s21.097656 45 46 45 45-20.097656 45-45-20.097656-45-45-45zm0 0" fill="#ececf1"/><path d="m391 407c0 24.902344-20.097656 45-45 45v-90c24.902344 0 45 20.097656 45 45zm0 0" fill="#d3d3d8"/></svg>