<svg height="512pt" viewBox="0 0 512.00036 512" width="512pt" xmlns="http://www.w3.org/2000/svg"><path d="m445.503906 130.140625-5.515625-38.1875-2.546875-17.394531-17.394531-2.546875-9.761719-13.578125-28.425781 8.0625-111.375-15.910156-270.484375 270.484374 190.929688 190.929688 270.484374-270.484375zm-137.894531 74.25c-17.605469-17.609375-17.605469-46.039063 0-63.644531 17.609375-17.609375 46.035156-17.609375 63.644531 0 2.121094 2.121094 4.03125 4.457031 5.730469 7 2.753906 4.453125 26.09375-12.089844 27.367187-7.425782 1.269532 5.515626-19.730468 32.460938-20.578124 37.972657-1.0625 9.546875-5.304688 18.882812-12.519532 26.097656-17.605468 17.605469-46.035156 17.609375-63.644531 0zm0 0" fill="#7fe881"/><path d="m461.414062 241.515625-270.484374 270.484375-95.464844-95.464844 212.144531-212.144531c17.609375 17.609375 46.039063 17.605469 63.644531 0 7.214844-7.214844 11.457032-16.546875 12.519532-26.09375.847656-5.515625 21.847656-32.460937 20.578124-37.976563-1.273437-4.664062-24.613281 11.882813-27.367187 7.425782-1.699219-2.542969-3.609375-4.878906-5.730469-7l66.1875-66.1875 2.546875 17.394531 5.515625 38.1875zm0 0" fill="#5bc980"/><path d="m445.503906 130.140625c-20.789062 20.789063-42.640625 37.550781-61.734375 48.15625 1.484375-10.394531-.636719-21.429687-6.785156-30.550781 14.847656-9.335938 31.605469-23.125 47.304687-38.820313 5.941407-5.941406 11.03125-11.457031 15.699219-16.972656 22.488281-25.457031 39.796875-52.527344 41.921875-61.859375-9.335937 2.121094-36.40625 19.429688-61.859375 41.917969l-38.1875-5.515625c8.695313-8.699219 92.195313-90.5 123.167969-59.527344s-50.828125 114.472656-59.527344 123.171875zm0 0" fill="#575f64"/><path d="m233.359375 257.425781-21.214844 21.214844 42.429688 42.429687-63.644531 63.644532-21.214844-21.214844-21.214844 21.214844-21.214844-21.214844 21.214844-21.214844-21.214844-21.214844 21.214844-21.214843 42.429688 42.429687 21.214843-21.214844-42.429687-42.429687 63.644531-63.644531 21.214844 21.214844 21.214843-21.214844 21.214844 21.214844-21.214844 21.214843 21.214844 21.214844-21.214844 21.214844zm0 0" fill="#ffda2d"/><path d="m297.003906 278.640625-21.214844 21.214844-31.820312-31.824219 42.425781-42.425781 10.609375 10.605469-21.214844 21.214843zm0 0" fill="#fdbf00"/><path d="m254.574219 321.070312-63.644531 63.644532-21.214844-21.214844-21.214844 21.214844-10.605469-10.609375 42.429688-42.429688 10.605469 10.609375 21.214843-21.214844-10.605469-10.609374 21.214844-21.210938zm0 0" fill="#fdbf00"/><path d="m445.503906 130.140625c-20.789062 20.789063-42.640625 37.550781-61.734375 48.15625 1.484375-10.394531-.636719-21.429687-6.785156-30.550781 14.847656-9.335938 31.605469-23.125 47.304687-38.820313 5.941407-5.941406 11.03125-11.457031 15.699219-16.972656 22.488281-25.457031 39.796875-52.527344 41.921875-61.859375l23.121094-23.125c30.972656 30.972656-50.828125 114.472656-59.527344 123.171875zm0 0" fill="#32393f"/></svg>