<svg height="512pt" viewBox="0 0 512 512" width="512pt" xmlns="http://www.w3.org/2000/svg"><path d="m512 256c0 141.386719-114.613281 256-256 256s-256-114.613281-256-256 114.613281-256 256-256 256 114.613281 256 256zm0 0" fill="#fdbf00"/><path d="m509.042969 295.023438-100.140625-100.140626-28.980469 28.976563-67.171875-67.171875-4.113281 4.109375-67.734375-67.734375-65.234375 6.273438-14.667969 132.332031-58.980469 173.324219 101.648438 101.644531c16.894531 3.511719 34.394531 5.363281 52.332031 5.363281 128.117188 0 234.25-94.113281 253.042969-216.976562zm0 0" fill="#ff9100"/><path d="m312.753906 156.679688v76.40625l-57.941406 171.914062h-76.40625l-57.304688-19.101562-19.101562-57.304688v-171.914062zm0 0" fill="#ff637b"/><path d="m312.753906 156.679688v76.40625l-57.941406 171.914062h-47.753906v-248.320312zm0 0" fill="#e63950"/><path d="m102 405h76.40625l-76.40625-76.40625zm0 0" fill="#e63950"/><path d="m254.8125 126.753906v87.230469h-19.101562v-87.230469c0-15.855468-12.796876-28.652344-28.652344-28.652344-15.855469 0-28.652344 12.796876-28.652344 28.652344v87.230469h-19.101562v-87.230469c0-26.359375 21.394531-47.753906 47.753906-47.753906s47.753906 21.394531 47.753906 47.753906zm0 0" fill="#575f64"/><path d="m254.8125 126.753906v87.230469h-19.101562v-87.230469c0-15.855468-12.796876-28.652344-28.652344-28.652344v-19.101562c26.359375 0 47.753906 21.394531 47.753906 47.753906zm0 0" fill="#32393f"/><path d="m273.914062 194.882812h134.984376v57.304688h-134.984376zm0 0" fill="#84ecf7"/><path d="m322.304688 194.882812h86.59375v57.304688h-86.59375zm0 0" fill="#32ddf9"/><path d="m370.695312 271.289062 38.203126-38.203124 19.101562 38.203124v133.710938h-38.203125zm0 0" fill="#babac0"/><path d="m389.796875 271.289062v133.710938h-134.984375v-133.710938l67.492188-17.382812 6.683593-1.71875zm0 0" fill="#84ecf7"/><path d="m389.796875 271.289062v133.710938h-67.492187v-151.09375l6.683593-1.71875zm0 0" fill="#32ddf9"/><path d="m408.898438 233.085938-19.101563 38.203124h-134.984375l19.101562-38.203124zm0 0" fill="#ececf1"/><path d="m408.898438 233.085938-19.101563 38.203124h-67.492187v-38.203124zm0 0" fill="#d3d3d8"/><path d="m322.304688 309.492188c-15.855469 0-29.289063 12.796874-29.289063 28.652343 0 15.851563 13.433594 28.652344 29.289063 28.652344 15.855468 0 28.652343-12.800781 28.652343-28.652344 0-15.855469-12.796875-28.652343-28.652343-28.652343zm0 0" fill="#ececf1"/><path d="m350.957031 338.144531c0 15.855469-12.796875 28.652344-28.652343 28.652344v-57.304687c15.855468 0 28.652343 12.796874 28.652343 28.652343zm0 0" fill="#d3d3d8"/></svg>