<svg height="512pt" viewBox="0 0 512 512" width="512pt" xmlns="http://www.w3.org/2000/svg"><path d="m512 212c0-33.136719-26.863281-60-60-60h-241c-33.136719 0-60 26.863281-60 60 0 22.152344 12.140625 41.285156 30 51.679688l60 218.320312h241v-218.320312c17.859375-10.394532 30-29.527344 30-51.679688zm0 0" fill="#ff9100"/><path d="m211 452v-205.5625l-14.898438-8.6875c-9.460937-5.507812-15.101562-15.128906-15.101562-25.75 0-16.539062 13.460938-30 30-30h241c16.539062 0 30 13.460938 30 30 0 10.621094-5.640625 20.242188-15.101562 25.753906l-14.898438 8.683594v205.5625zm0 0" fill="#ffbd86"/><path d="m241 193.398438v9.300781l-41.699219 50.699219-78.300781 3.300781-101.5 4.5-19.5-10.5v-57.300781l87.699219-175.398438h66.601562zm0 0" fill="#ececf1"/><path d="m241 193.398438v9.300781l-41.699219 50.699219-78.300781 3.300781v-238.699219h33.300781zm0 0" fill="#d3d3d8"/><path d="m241 202.699219v279.300781h-241v-231.300781l19.5-19.5c26.699219-26.699219 67.898438-33.898438 101.5-19.800781 5.699219 1.800781 10.800781 4.800781 15.902344 8.101562 18.597656 12.597656 42.597656 14.097656 62.398437 3.898438zm0 0" fill="#84ecf7"/><path d="m241 202.699219v279.300781h-120v-270.601562c5.699219 1.800781 10.800781 4.800781 15.902344 8.101562 18.597656 12.597656 42.597656 14.097656 62.398437 3.898438zm0 0" fill="#32ddf9"/><path d="m121 272c-33 0-60 27-60 60s27 60 60 60 60-27 60-60-27-60-60-60zm0 0" fill="#f2f2fc"/><path d="m346 272v30c-24.902344 0-45 20.097656-45 45v45h-30v-45c0-16.800781 5.398438-32.402344 15-44.699219 13.5-18.300781 35.398438-30.300781 60-30.300781zm0 0" fill="#5bc980"/><path d="m331.601562 333.5c-15.300781-3-31.203124.300781-45.601562 8.699219-14.398438-8.398438-30.300781-11.699219-45.601562-8.699219-40.800782 7.199219-66.898438 52.800781-58.199219 101.398438 3.898437 23.101562 15 43.800781 31.199219 57.902343 16.199218 14.398438 36.601562 22 58.203124 18.101563 4.796876-.601563 9.597657-2.101563 14.398438-4.503906 4.796875 2.402343 9.597656 3.902343 14.398438 4.503906 20.398437 3.597656 41.097656-3.101563 58.199218-18.101563 16.203125-14.101562 27.300782-34.800781 31.203125-57.902343 1.195313-6.300782 1.796875-12.597657 1.796875-18.597657.003906-41.101562-24.597656-76.5-59.996094-82.800781zm0 0" fill="#ff637b"/><path d="m391.601562 416.300781c0 6-.601562 12.296875-1.800781 18.597657-3.898437 23.101562-15 43.800781-31.199219 57.902343-17.101562 15-37.800781 21.699219-58.203124 18.101563-4.796876-.601563-9.597657-2.101563-14.398438-4.503906v-164.199219c14.398438-8.398438 30.300781-11.699219 45.601562-8.699219 35.398438 6.300781 60 41.699219 60 82.800781zm0 0" fill="#e63950"/><path d="m30 0h181v60h-181zm0 0" fill="#28d0f7"/><path d="m181 332c0 33-27 60-60 60v-120c33 0 60 27 60 60zm0 0" fill="#d8d8fc"/><path d="m121 0h90v60h-90zm0 0" fill="#00c0f1"/></svg>