<?xml version="1.0" standalone="no"?>
<!DOCTYPE svg PUBLIC "-//W3C//DTD SVG 20010904//EN"
 "http://www.w3.org/TR/2001/REC-SVG-20010904/DTD/svg10.dtd">
<svg version="1.0" xmlns="http://www.w3.org/2000/svg"
 width="700.000000pt" height="700.000000pt" viewBox="0 0 700.000000 700.000000"
 preserveAspectRatio="xMidYMid meet">
<metadata>
Created by potrace 1.11, written by Peter Selinger 2001-2013
</metadata>
<g transform="translate(0.000000,700.000000) scale(0.100000,-0.100000)"
fill="#000000" stroke="none">
<path d="M1544 6736 c-35 -39 -105 -137 -128 -179 -29 -53 -80 -199 -92 -262
-10 -52 -11 -1098 -1 -1148 44 -226 248 -411 480 -434 l57 -6 -1 -231 c-1
-223 -1 -229 -15 -166 -55 255 -237 468 -476 557 -85 31 -201 50 -293 47 -106
-3 -129 -7 -215 -35 -242 -79 -412 -251 -497 -501 l-28 -83 -3 -652 c-3 -627
-2 -655 18 -734 11 -45 35 -111 54 -146 l35 -66 -23 -31 c-29 -38 -66 -110
-74 -145 -4 -14 -6 -69 -6 -121 0 -114 23 -184 88 -263 49 -61 148 -131 214
-151 45 -14 39 -15 -130 -15 l-178 -1 -1 -397 c-1 -626 2 -1347 6 -1351 2 -2
1211 -3 2687 -2 1475 1 2852 2 3058 1 l375 -2 0 423 c0 233 1 431 3 440 3 13
16 16 65 17 34 0 81 0 105 0 l42 1 0 273 0 273 -108 -1 -109 0 0 510 c0 280
-3 535 -7 565 -4 30 -7 57 -6 60 1 12 -49 149 -70 190 -35 69 -104 162 -159
213 -100 94 -257 174 -376 193 -27 4 -53 9 -57 10 -5 1 -149 2 -321 3 l-312 1
62 65 c68 72 124 174 142 263 7 32 11 175 11 356 l0 304 98 4 c73 3 108 10
143 27 73 35 125 86 159 154 61 126 42 261 -52 368 -29 34 -117 89 -140 89
-10 0 -18 4 -18 9 0 4 61 8 135 7 162 -2 209 10 265 67 75 74 86 195 25 277
-35 48 -86 78 -147 87 -29 5 -146 8 -260 7 l-208 0 -1 345 c0 190 -2 366 -5
391 -27 226 -141 385 -319 446 -53 18 -215 24 -291 12 -23 -4 -90 -32 -148
-62 -84 -43 -120 -56 -174 -62 -91 -10 -169 8 -267 61 -44 23 -98 48 -119 55
-49 16 -200 20 -268 8 -202 -37 -347 -220 -372 -473 -3 -22 -5 -193 -5 -381
l-1 -340 -207 0 c-192 1 -275 -4 -322 -19 -17 -5 -18 14 -16 392 1 281 6 413
15 448 18 74 86 208 131 259 l39 44 -76 77 -76 77 -30 -29 c-62 -58 -146 -204
-182 -313 -36 -111 -39 -169 -41 -685 -1 -575 -2 -580 -71 -668 -39 -51 -126
-113 -142 -103 -13 8 -6 1254 8 1321 21 103 84 230 148 298 l26 28 -78 77 -78
77 -35 -40 c-113 -130 -186 -292 -208 -464 -4 -29 -7 -339 -7 -687 l-1 -634
-21 -1 c-11 0 -60 -1 -109 -2 l-87 -2 0 651 c0 616 1 655 20 728 22 88 79 200
128 253 17 20 32 38 32 42 0 4 -34 40 -75 81 l-75 75 -35 -40 c-92 -104 -163
-248 -195 -394 -18 -79 -19 -138 -20 -725 0 -352 -2 -641 -4 -644 -9 -8 -83
38 -120 75 -21 21 -51 63 -65 93 l-26 55 -2 520 c-3 556 -1 583 48 700 25 59
76 139 112 177 l26 28 -75 72 c-41 40 -78 74 -82 75 -4 1 -12 -4 -18 -11z
m1321 -1680 c33 -16 68 -19 202 -20 90 0 163 -2 163 -3 0 -1 -24 -9 -53 -17
-65 -19 -120 -61 -165 -125 -114 -163 -50 -394 133 -480 52 -24 79 -29 172
-30 l72 -1 3 -332 c3 -331 4 -333 29 -400 32 -83 89 -168 147 -219 l43 -38
-343 -3 c-333 -4 -345 -5 -424 -29 -242 -75 -426 -256 -509 -499 -26 -77 -25
-72 -25 -110 0 -16 -3 -30 -7 -30 -5 0 -8 447 -7 993 l0 992 59 7 c186 24 351
139 427 298 18 38 35 68 38 66 3 -1 23 -10 45 -20z m-1007 -2214 c-3 -46 -4
-49 -25 -41 l-22 8 20 63 c10 35 20 74 21 88 1 14 3 4 5 -22 2 -26 3 -69 1
-96z m2 -847 c0 -24 -2 -25 -72 -24 l-73 0 65 23 c84 30 80 30 80 1z"/>
</g>
</svg>
